<svg xmlns="http://www.w3.org/2000/svg" style="display:none">
  <defs>

    <!-- linked: chain link -->
    <symbol id="status-linked" viewBox="0 0 24 24" fill="none" stroke="currentColor" stroke-width="1.5" stroke-linecap="round" stroke-linejoin="round">
      <path d="M10 13a5 5 0 0 0 7.54.54l3-3a5 5 0 0 0-7.07-7.07l-1.72 1.71"/>
      <path d="M14 11a5 5 0 0 0-7.54-.54l-3 3a5 5 0 0 0 7.07 7.07l1.71-1.71"/>
    </symbol>

    <!-- stale: triangle warning -->
    <symbol id="status-stale" viewBox="0 0 24 24" fill="none" stroke="currentColor" stroke-width="1.5" stroke-linecap="round" stroke-linejoin="round">
      <path d="M10.29 3.86L1.82 18a2 2 0 0 0 1.71 3h16.94a2 2 0 0 0 1.71-3L13.71 3.86a2 2 0 0 0-3.42 0z"/>
      <line x1="12" y1="9" x2="12" y2="13"/>
      <line x1="12" y1="17" x2="12.01" y2="17"/>
    </symbol>

    <!-- error: circle x -->
    <symbol id="status-error" viewBox="0 0 24 24" fill="none" stroke="currentColor" stroke-width="1.5" stroke-linecap="round" stroke-linejoin="round">
      <circle cx="12" cy="12" r="10"/>
      <line x1="15" y1="9" x2="9" y2="15"/>
      <line x1="9" y1="9" x2="15" y2="15"/>
    </symbol>

    <!-- syncing: double curved arrows -->
    <symbol id="status-syncing" viewBox="0 0 24 24" fill="none" stroke="currentColor" stroke-width="1.5" stroke-linecap="round" stroke-linejoin="round">
      <path d="M4 12a8 8 0 0 1 13.66-5.66"/>
      <path d="M20 12a8 8 0 0 1-13.66 5.66"/>
      <polyline points="18 6 20 4 22 6"/>
      <polyline points="2 18 4 20 6 18"/>
    </symbol>

  </defs>
</svg>
